<mxfile host="65bd71144e">
    <diagram id="hNkk0UEMVcGhsX2NO1bF" name="Page-1">
        <mxGraphModel dx="1911" dy="2046" grid="1" gridSize="10" guides="1" tooltips="1" connect="1" arrows="1" fold="1" page="1" pageScale="1" pageWidth="850" pageHeight="1100" math="0" shadow="0">
            <root>
                <mxCell id="0"/>
                <mxCell id="1" parent="0"/>
                <mxCell id="2" value="" style="rounded=0;whiteSpace=wrap;html=1;" parent="1" vertex="1">
                    <mxGeometry x="30.000000000000007" y="80" width="1000" height="1000" as="geometry"/>
                </mxCell>
                <mxCell id="5" value="" style="line;strokeWidth=4;direction=south;html=1;perimeter=backbonePerimeter;points=[];outlineConnect=0;" parent="1" vertex="1">
                    <mxGeometry x="180" y="80" width="10" height="1000" as="geometry"/>
                </mxCell>
                <mxCell id="7" value="" style="line;strokeWidth=4;direction=south;html=1;perimeter=backbonePerimeter;points=[];outlineConnect=0;" parent="1" vertex="1">
                    <mxGeometry x="670" y="80" width="10" height="1000" as="geometry"/>
                </mxCell>
                <mxCell id="8" value="" style="line;strokeWidth=4;html=1;perimeter=backbonePerimeter;points=[];outlineConnect=0;" parent="1" vertex="1">
                    <mxGeometry x="30" y="-60" width="1000" height="440" as="geometry"/>
                </mxCell>
                <mxCell id="11" value="" style="line;strokeWidth=4;direction=south;html=1;perimeter=backbonePerimeter;points=[];outlineConnect=0;" parent="1" vertex="1">
                    <mxGeometry x="80" y="160" width="10" height="920" as="geometry"/>
                </mxCell>
                <mxCell id="12" value="logo" style="shape=hexagon;perimeter=hexagonPerimeter2;whiteSpace=wrap;html=1;fixedSize=1;size=30;fillColor=#f5f5f5;fontColor=#333333;strokeColor=#666666;" parent="1" vertex="1">
                    <mxGeometry x="30" y="270" width="50" height="40" as="geometry"/>
                </mxCell>
                <mxCell id="13" value="Name" style="shape=partialRectangle;whiteSpace=wrap;html=1;left=0;right=0;fillColor=#fff2cc;strokeColor=#d6b656;" parent="1" vertex="1">
                    <mxGeometry x="90" y="270" width="80" height="50" as="geometry"/>
                </mxCell>
                <mxCell id="14" value="Space" style="shape=partialRectangle;whiteSpace=wrap;html=1;left=0;right=0;fillColor=none;" parent="1" vertex="1">
                    <mxGeometry x="30" y="430" width="150" height="120" as="geometry"/>
                </mxCell>
                <mxCell id="16" value="logo" style="rhombus;whiteSpace=wrap;html=1;fillColor=#f5f5f5;fontColor=#333333;strokeColor=#666666;" parent="1" vertex="1">
                    <mxGeometry x="30" y="550" width="50" height="50" as="geometry"/>
                </mxCell>
                <mxCell id="17" value="Home" style="shape=partialRectangle;whiteSpace=wrap;html=1;left=0;right=0;fillColor=#fff2cc;strokeColor=#d6b656;" parent="1" vertex="1">
                    <mxGeometry x="100" y="560" width="60" height="40" as="geometry"/>
                </mxCell>
                <mxCell id="18" value="" style="shape=ext;double=1;rounded=1;whiteSpace=wrap;html=1;" parent="1" vertex="1">
                    <mxGeometry x="190" y="80" width="480" height="80" as="geometry"/>
                </mxCell>
                <mxCell id="21" value="" style="edgeStyle=none;html=1;" parent="1" source="19" target="20" edge="1">
                    <mxGeometry relative="1" as="geometry"/>
                </mxCell>
                <mxCell id="19" value="" style="ellipse;shape=doubleEllipse;whiteSpace=wrap;html=1;aspect=fixed;fillColor=#dae8fc;strokeColor=#6c8ebf;" parent="1" vertex="1">
                    <mxGeometry x="210" y="90" width="50" height="50" as="geometry"/>
                </mxCell>
                <mxCell id="20" value="" style="ellipse;shape=doubleEllipse;whiteSpace=wrap;html=1;aspect=fixed;fillColor=#dae8fc;strokeColor=#6c8ebf;" parent="1" vertex="1">
                    <mxGeometry x="340" y="90" width="50" height="50" as="geometry"/>
                </mxCell>
                <mxCell id="24" value="" style="edgeStyle=none;html=1;" parent="1" source="22" target="23" edge="1">
                    <mxGeometry relative="1" as="geometry"/>
                </mxCell>
                <mxCell id="25" value="" style="edgeStyle=none;html=1;" parent="1" source="22" target="20" edge="1">
                    <mxGeometry relative="1" as="geometry"/>
                </mxCell>
                <mxCell id="22" value="" style="ellipse;shape=doubleEllipse;whiteSpace=wrap;html=1;aspect=fixed;fillColor=#dae8fc;strokeColor=#6c8ebf;" parent="1" vertex="1">
                    <mxGeometry x="460" y="90" width="50" height="50" as="geometry"/>
                </mxCell>
                <mxCell id="23" value="" style="ellipse;shape=doubleEllipse;whiteSpace=wrap;html=1;aspect=fixed;fillColor=#dae8fc;strokeColor=#6c8ebf;" parent="1" vertex="1">
                    <mxGeometry x="590" y="90" width="50" height="50" as="geometry"/>
                </mxCell>
                <mxCell id="26" value="Name" style="shape=delay;whiteSpace=wrap;html=1;fillColor=#e1d5e7;strokeColor=#9673a6;" parent="1" vertex="1">
                    <mxGeometry x="200" y="150" width="70" height="10" as="geometry"/>
                </mxCell>
                <mxCell id="31" value="Name" style="shape=delay;whiteSpace=wrap;html=1;fillColor=#e1d5e7;strokeColor=#9673a6;" parent="1" vertex="1">
                    <mxGeometry x="330" y="150" width="70" height="10" as="geometry"/>
                </mxCell>
                <mxCell id="32" value="Name" style="shape=delay;whiteSpace=wrap;html=1;fillColor=#e1d5e7;strokeColor=#9673a6;" parent="1" vertex="1">
                    <mxGeometry x="450" y="150" width="70" height="10" as="geometry"/>
                </mxCell>
                <mxCell id="33" value="Name" style="shape=delay;whiteSpace=wrap;html=1;fillColor=#e1d5e7;strokeColor=#9673a6;" parent="1" vertex="1">
                    <mxGeometry x="580" y="150" width="70" height="10" as="geometry"/>
                </mxCell>
                <mxCell id="34" value="" style="line;strokeWidth=4;html=1;perimeter=backbonePerimeter;points=[];outlineConnect=0;" parent="1" vertex="1">
                    <mxGeometry x="215" y="210" width="420" height="10" as="geometry"/>
                </mxCell>
                <mxCell id="35" value="pic" style="ellipse;shape=doubleEllipse;whiteSpace=wrap;html=1;aspect=fixed;fillColor=#fff2cc;strokeColor=#d6b656;gradientColor=#ffd966;" parent="1" vertex="1">
                    <mxGeometry x="215" y="170" width="35" height="35" as="geometry"/>
                </mxCell>
                <mxCell id="36" value="Name" style="shape=ext;double=1;rounded=1;whiteSpace=wrap;html=1;fillColor=#f9f7ed;strokeColor=#36393d;" parent="1" vertex="1">
                    <mxGeometry x="260" y="175" width="140" height="30" as="geometry"/>
                </mxCell>
                <mxCell id="37" value="" style="shape=waypoint;sketch=0;fillStyle=solid;size=6;pointerEvents=1;points=[];fillColor=none;resizable=0;rotatable=0;perimeter=centerPerimeter;snapToPoint=1;" parent="1" vertex="1">
                    <mxGeometry x="400" y="185" width="20" height="20" as="geometry"/>
                </mxCell>
                <mxCell id="38" value="Time" style="shape=ext;double=1;rounded=0;whiteSpace=wrap;html=1;fillColor=#cce5ff;strokeColor=#36393d;" parent="1" vertex="1">
                    <mxGeometry x="420" y="175" width="50" height="30" as="geometry"/>
                </mxCell>
                <mxCell id="39" value="" style="dashed=0;outlineConnect=0;html=1;align=center;labelPosition=center;verticalLabelPosition=bottom;verticalAlign=top;shape=mxgraph.weblogos.instagram;fillColor=#6FC0E4;gradientColor=#1E305B" parent="1" vertex="1">
                    <mxGeometry x="68.9" y="90" width="61.1" height="60" as="geometry"/>
                </mxCell>
                <mxCell id="41" value="Image" style="shape=ext;double=1;rounded=0;whiteSpace=wrap;html=1;fillColor=#ffff88;strokeColor=#36393d;" parent="1" vertex="1">
                    <mxGeometry x="220" y="230" width="410" height="290" as="geometry"/>
                </mxCell>
                <mxCell id="42" value="" style="shape=partialRectangle;whiteSpace=wrap;html=1;left=0;right=0;fillColor=none;" parent="1" vertex="1">
                    <mxGeometry x="220" y="530" width="410" height="30" as="geometry"/>
                </mxCell>
                <mxCell id="43" value="" style="html=1;verticalLabelPosition=bottom;align=center;labelBackgroundColor=#ffffff;verticalAlign=top;strokeWidth=2;strokeColor=#B20000;shadow=0;dashed=0;shape=mxgraph.ios7.icons.heart;fillColor=#e51400;fontColor=#ffffff;" parent="1" vertex="1">
                    <mxGeometry x="222.5" y="535" width="20" height="20" as="geometry"/>
                </mxCell>
                <mxCell id="44" value="" style="html=1;verticalLabelPosition=bottom;align=center;labelBackgroundColor=#ffffff;verticalAlign=top;strokeWidth=2;strokeColor=#C73500;shadow=0;dashed=0;shape=mxgraph.ios7.icons.message;fillColor=#fa6800;fontColor=#000000;" parent="1" vertex="1">
                    <mxGeometry x="250" y="535.5" width="20" height="19.5" as="geometry"/>
                </mxCell>
                <mxCell id="45" value="" style="html=1;verticalLabelPosition=bottom;align=center;labelBackgroundColor=#ffffff;verticalAlign=top;strokeWidth=2;strokeColor=#3A5431;shadow=0;dashed=0;shape=mxgraph.ios7.icons.pointer;fillColor=#6d8764;fontColor=#ffffff;" parent="1" vertex="1">
                    <mxGeometry x="280" y="535.25" width="30" height="20" as="geometry"/>
                </mxCell>
                <mxCell id="46" value="" style="html=1;verticalLabelPosition=bottom;align=center;labelBackgroundColor=#ffffff;verticalAlign=top;strokeWidth=2;strokeColor=#6D1F00;shadow=0;dashed=0;shape=mxgraph.ios7.icons.bookmark;fillColor=#a0522d;fontColor=#ffffff;" parent="1" vertex="1">
                    <mxGeometry x="600" y="533" width="24" height="27" as="geometry"/>
                </mxCell>
                <mxCell id="47" value="Likes" style="shape=ext;double=1;rounded=0;whiteSpace=wrap;html=1;fillColor=#FFFF99;fontColor=#000000;strokeColor=#432D57;" parent="1" vertex="1">
                    <mxGeometry x="220" y="570" width="60" height="20" as="geometry"/>
                </mxCell>
                <mxCell id="48" value="name" style="shape=ext;double=1;rounded=0;whiteSpace=wrap;html=1;labelBackgroundColor=none;fontColor=#000000;fillColor=#FFFF99;" parent="1" vertex="1">
                    <mxGeometry x="220" y="600" width="60" height="20" as="geometry"/>
                </mxCell>
                <mxCell id="49" value="Caption" style="shape=ext;double=1;rounded=1;whiteSpace=wrap;html=1;labelBackgroundColor=none;fillColor=#fad7ac;strokeColor=#b46504;" parent="1" vertex="1">
                    <mxGeometry x="290" y="600" width="320" height="20" as="geometry"/>
                </mxCell>
                <mxCell id="50" value="text" style="shape=ext;double=1;rounded=1;whiteSpace=wrap;html=1;labelBackgroundColor=none;fillColor=#b1ddf0;strokeColor=#10739e;" parent="1" vertex="1">
                    <mxGeometry x="220" y="630" width="390" height="20" as="geometry"/>
                </mxCell>
                <mxCell id="51" value="Coment section" style="shape=partialRectangle;whiteSpace=wrap;html=1;left=0;right=0;fillColor=#fad9d5;labelBackgroundColor=none;strokeColor=#ae4132;" parent="1" vertex="1">
                    <mxGeometry x="220" y="660" width="390" height="20" as="geometry"/>
                </mxCell>
                <mxCell id="52" value="" style="shape=waypoint;sketch=0;fillStyle=solid;size=6;pointerEvents=1;points=[];fillColor=none;resizable=0;rotatable=0;perimeter=centerPerimeter;snapToPoint=1;labelBackgroundColor=none;fontColor=#000000;" parent="1" vertex="1">
                    <mxGeometry x="615" y="180" width="20" height="20" as="geometry"/>
                </mxCell>
                <mxCell id="53" value="" style="shape=waypoint;sketch=0;fillStyle=solid;size=6;pointerEvents=1;points=[];fillColor=none;resizable=0;rotatable=0;perimeter=centerPerimeter;snapToPoint=1;labelBackgroundColor=none;fontColor=#000000;" parent="1" vertex="1">
                    <mxGeometry x="590" y="180" width="20" height="20" as="geometry"/>
                </mxCell>
                <mxCell id="54" value="" style="shape=waypoint;sketch=0;fillStyle=solid;size=6;pointerEvents=1;points=[];fillColor=none;resizable=0;rotatable=0;perimeter=centerPerimeter;snapToPoint=1;labelBackgroundColor=none;fontColor=#000000;" parent="1" vertex="1">
                    <mxGeometry x="602" y="180" width="20" height="20" as="geometry"/>
                </mxCell>
                <mxCell id="55" value="" style="ellipse;shape=doubleEllipse;whiteSpace=wrap;html=1;aspect=fixed;labelBackgroundColor=none;fontColor=#000000;fillColor=#FFFF99;" parent="1" vertex="1">
                    <mxGeometry x="680" y="90" width="50" height="50" as="geometry"/>
                </mxCell>
                <mxCell id="56" value="User_name" style="shape=ext;double=1;rounded=0;whiteSpace=wrap;html=1;labelBackgroundColor=none;fillColor=#d0cee2;strokeColor=#56517e;" parent="1" vertex="1">
                    <mxGeometry x="740" y="100" width="120" height="20" as="geometry"/>
                </mxCell>
                <mxCell id="58" value="Name" style="shape=ext;double=1;rounded=1;whiteSpace=wrap;html=1;labelBackgroundColor=none;fillColor=#bac8d3;strokeColor=#23445d;" parent="1" vertex="1">
                    <mxGeometry x="740" y="125" width="120" height="15" as="geometry"/>
                </mxCell>
                <mxCell id="60" value="Button" style="shape=ext;double=1;whiteSpace=wrap;html=1;aspect=fixed;labelBackgroundColor=none;fillColor=#fad7ac;strokeColor=#b46504;" parent="1" vertex="1">
                    <mxGeometry x="960" y="90" width="50" height="50" as="geometry"/>
                </mxCell>
                <mxCell id="61" value="" style="ellipse;shape=doubleEllipse;whiteSpace=wrap;html=1;aspect=fixed;labelBackgroundColor=none;fontColor=#000000;fillColor=#FFFF99;" parent="1" vertex="1">
                    <mxGeometry x="690" y="210" width="50" height="50" as="geometry"/>
                </mxCell>
                <mxCell id="62" value="" style="ellipse;shape=doubleEllipse;whiteSpace=wrap;html=1;aspect=fixed;labelBackgroundColor=none;fontColor=#000000;fillColor=#FFFF99;" parent="1" vertex="1">
                    <mxGeometry x="690" y="270" width="50" height="50" as="geometry"/>
                </mxCell>
                <mxCell id="63" value="" style="ellipse;shape=doubleEllipse;whiteSpace=wrap;html=1;aspect=fixed;labelBackgroundColor=none;fontColor=#000000;fillColor=#FFFF99;" parent="1" vertex="1">
                    <mxGeometry x="690" y="330" width="50" height="50" as="geometry"/>
                </mxCell>
                <mxCell id="64" value="" style="ellipse;shape=doubleEllipse;whiteSpace=wrap;html=1;aspect=fixed;labelBackgroundColor=none;fontColor=#000000;fillColor=#FFFF99;" parent="1" vertex="1">
                    <mxGeometry x="690" y="390" width="50" height="50" as="geometry"/>
                </mxCell>
                <mxCell id="65" value="User_name" style="shape=ext;double=1;rounded=0;whiteSpace=wrap;html=1;labelBackgroundColor=none;fillColor=#d0cee2;strokeColor=#56517e;" parent="1" vertex="1">
                    <mxGeometry x="750" y="210" width="120" height="20" as="geometry"/>
                </mxCell>
                <mxCell id="66" value="User_name" style="shape=ext;double=1;rounded=0;whiteSpace=wrap;html=1;labelBackgroundColor=none;fillColor=#d0cee2;strokeColor=#56517e;" parent="1" vertex="1">
                    <mxGeometry x="750" y="270" width="120" height="20" as="geometry"/>
                </mxCell>
                <mxCell id="67" value="User_name" style="shape=ext;double=1;rounded=0;whiteSpace=wrap;html=1;labelBackgroundColor=none;fillColor=#d0cee2;strokeColor=#56517e;" parent="1" vertex="1">
                    <mxGeometry x="750" y="330" width="120" height="20" as="geometry"/>
                </mxCell>
                <mxCell id="68" value="User_name" style="shape=ext;double=1;rounded=0;whiteSpace=wrap;html=1;labelBackgroundColor=none;fillColor=#d0cee2;strokeColor=#56517e;" parent="1" vertex="1">
                    <mxGeometry x="750" y="390" width="120" height="20" as="geometry"/>
                </mxCell>
                <mxCell id="69" value="Name" style="shape=ext;double=1;rounded=1;whiteSpace=wrap;html=1;labelBackgroundColor=none;fillColor=#bac8d3;strokeColor=#23445d;" parent="1" vertex="1">
                    <mxGeometry x="750" y="410" width="120" height="15" as="geometry"/>
                </mxCell>
                <mxCell id="70" value="Name" style="shape=ext;double=1;rounded=1;whiteSpace=wrap;html=1;labelBackgroundColor=none;fillColor=#bac8d3;strokeColor=#23445d;" parent="1" vertex="1">
                    <mxGeometry x="750" y="350" width="120" height="15" as="geometry"/>
                </mxCell>
                <mxCell id="71" value="Name" style="shape=ext;double=1;rounded=1;whiteSpace=wrap;html=1;labelBackgroundColor=none;fillColor=#bac8d3;strokeColor=#23445d;" parent="1" vertex="1">
                    <mxGeometry x="750" y="290" width="120" height="15" as="geometry"/>
                </mxCell>
                <mxCell id="72" value="Name" style="shape=ext;double=1;rounded=1;whiteSpace=wrap;html=1;labelBackgroundColor=none;fillColor=#bac8d3;strokeColor=#23445d;" parent="1" vertex="1">
                    <mxGeometry x="750" y="230" width="120" height="15" as="geometry"/>
                </mxCell>
                <mxCell id="75" value="Button" style="shape=ext;double=1;whiteSpace=wrap;html=1;aspect=fixed;labelBackgroundColor=none;fillColor=#fad7ac;strokeColor=#b46504;" parent="1" vertex="1">
                    <mxGeometry x="970" y="375" width="50" height="50" as="geometry"/>
                </mxCell>
                <mxCell id="76" value="Button" style="shape=ext;double=1;whiteSpace=wrap;html=1;aspect=fixed;labelBackgroundColor=none;fillColor=#fad7ac;strokeColor=#b46504;" parent="1" vertex="1">
                    <mxGeometry x="970" y="320" width="50" height="50" as="geometry"/>
                </mxCell>
                <mxCell id="77" value="Button" style="shape=ext;double=1;whiteSpace=wrap;html=1;aspect=fixed;labelBackgroundColor=none;fillColor=#fad7ac;strokeColor=#b46504;" parent="1" vertex="1">
                    <mxGeometry x="970" y="265" width="50" height="50" as="geometry"/>
                </mxCell>
                <mxCell id="78" value="Button" style="shape=ext;double=1;whiteSpace=wrap;html=1;aspect=fixed;labelBackgroundColor=none;fillColor=#fad7ac;strokeColor=#b46504;" parent="1" vertex="1">
                    <mxGeometry x="970" y="210" width="50" height="50" as="geometry"/>
                </mxCell>
                <mxCell id="79" value=".whole" style="rounded=1;whiteSpace=wrap;html=1;labelBackgroundColor=none;fontColor=#000000;fillColor=#FFFF99;" parent="1" vertex="1">
                    <mxGeometry x="10" y="-1090" width="120" height="60" as="geometry"/>
                </mxCell>
                <mxCell id="88" value="" style="line;strokeWidth=4;direction=south;html=1;perimeter=backbonePerimeter;points=[];outlineConnect=0;labelBackgroundColor=none;fontColor=#000000;fillColor=#FFFF99;" parent="1" vertex="1">
                    <mxGeometry x="58.9" y="-1030" width="10" height="190" as="geometry"/>
                </mxCell>
                <mxCell id="89" value="" style="endArrow=classic;html=1;fontColor=#000000;" parent="1" edge="1">
                    <mxGeometry relative="1" as="geometry">
                        <mxPoint x="59" y="-1000" as="sourcePoint"/>
                        <mxPoint x="160" y="-1000" as="targetPoint"/>
                        <Array as="points">
                            <mxPoint x="58.900000000000006" y="-1000"/>
                        </Array>
                    </mxGeometry>
                </mxCell>
                <mxCell id="91" value="" style="edgeStyle=none;orthogonalLoop=1;jettySize=auto;html=1;fontColor=#000000;" parent="1" source="88" edge="1">
                    <mxGeometry width="100" relative="1" as="geometry">
                        <mxPoint x="160" y="-890" as="sourcePoint"/>
                        <mxPoint x="160" y="-920" as="targetPoint"/>
                        <Array as="points">
                            <mxPoint x="120" y="-920"/>
                        </Array>
                    </mxGeometry>
                </mxCell>
                <mxCell id="93" value="" style="edgeStyle=none;orthogonalLoop=1;jettySize=auto;html=1;fontColor=#000000;" parent="1" source="88" edge="1">
                    <mxGeometry width="100" relative="1" as="geometry">
                        <mxPoint x="60" y="-860" as="sourcePoint"/>
                        <mxPoint x="160" y="-840" as="targetPoint"/>
                        <Array as="points">
                            <mxPoint x="110" y="-840"/>
                        </Array>
                    </mxGeometry>
                </mxCell>
                <mxCell id="94" value=".left_body" style="whiteSpace=wrap;html=1;labelBackgroundColor=none;fontColor=#000000;fillColor=#FFFF99;" parent="1" vertex="1">
                    <mxGeometry x="160" y="-1030" width="120" height="60" as="geometry"/>
                </mxCell>
                <mxCell id="95" value=".mid_body" style="whiteSpace=wrap;html=1;labelBackgroundColor=none;fontColor=#000000;fillColor=#FFFF99;" parent="1" vertex="1">
                    <mxGeometry x="160" y="-950" width="120" height="60" as="geometry"/>
                </mxCell>
                <mxCell id="96" value=".right_body" style="whiteSpace=wrap;html=1;labelBackgroundColor=none;fontColor=#000000;fillColor=#FFFF99;" parent="1" vertex="1">
                    <mxGeometry x="160" y="-870" width="120" height="60" as="geometry"/>
                </mxCell>
                <mxCell id="97" value="" style="edgeStyle=none;orthogonalLoop=1;jettySize=auto;html=1;fontColor=#000000;exitX=1;exitY=0.5;exitDx=0;exitDy=0;" parent="1" source="94" edge="1">
                    <mxGeometry width="100" relative="1" as="geometry">
                        <mxPoint x="320" y="-890" as="sourcePoint"/>
                        <mxPoint x="390" y="-1000" as="targetPoint"/>
                        <Array as="points">
                            <mxPoint x="340" y="-1000"/>
                        </Array>
                    </mxGeometry>
                </mxCell>
                <mxCell id="98" value="" style="edgeStyle=none;orthogonalLoop=1;jettySize=auto;html=1;fontColor=#000000;" parent="1" edge="1">
                    <mxGeometry width="100" relative="1" as="geometry">
                        <mxPoint x="390" y="-1000" as="sourcePoint"/>
                        <mxPoint x="480" y="-1040" as="targetPoint"/>
                        <Array as="points">
                            <mxPoint x="400" y="-1000"/>
                            <mxPoint x="400" y="-1040"/>
                        </Array>
                    </mxGeometry>
                </mxCell>
                <mxCell id="99" value="&lt;b&gt;&lt;u&gt;&lt;font style=&quot;font-size: 22px;&quot;&gt;Flex&lt;/font&gt;&lt;/u&gt;&lt;/b&gt;" style="text;html=1;align=center;verticalAlign=middle;resizable=0;points=[];autosize=1;strokeColor=none;fillColor=none;fontColor=#000000;" parent="1" vertex="1">
                    <mxGeometry x="180" y="-1080" width="70" height="40" as="geometry"/>
                </mxCell>
                <mxCell id="101" value="logo" style="whiteSpace=wrap;html=1;labelBackgroundColor=none;fontSize=22;fillColor=#fad7ac;strokeColor=#b46504;" parent="1" vertex="1">
                    <mxGeometry x="480" y="-1060" width="120" height="40" as="geometry"/>
                </mxCell>
                <mxCell id="102" value="" style="edgeStyle=none;orthogonalLoop=1;jettySize=auto;html=1;fontSize=12;fontColor=#000000;" parent="1" edge="1">
                    <mxGeometry width="100" relative="1" as="geometry">
                        <mxPoint x="390" y="-1000" as="sourcePoint"/>
                        <mxPoint x="480" y="-960" as="targetPoint"/>
                        <Array as="points">
                            <mxPoint x="400" y="-1000"/>
                            <mxPoint x="400" y="-960"/>
                        </Array>
                    </mxGeometry>
                </mxCell>
                <mxCell id="103" value=".left_nav" style="whiteSpace=wrap;html=1;labelBackgroundColor=none;fontSize=12;fontColor=#000000;fillColor=#FFFF99;" parent="1" vertex="1">
                    <mxGeometry x="482" y="-980" width="120" height="40" as="geometry"/>
                </mxCell>
                <mxCell id="104" value="" style="edgeStyle=none;orthogonalLoop=1;jettySize=auto;html=1;fontSize=12;fontColor=#000000;exitX=1;exitY=0.5;exitDx=0;exitDy=0;" parent="1" source="103" edge="1">
                    <mxGeometry width="100" relative="1" as="geometry">
                        <mxPoint x="600" y="-1010" as="sourcePoint"/>
                        <mxPoint x="700" y="-960" as="targetPoint"/>
                        <Array as="points">
                            <mxPoint x="660" y="-960"/>
                        </Array>
                    </mxGeometry>
                </mxCell>
                <mxCell id="105" value="" style="edgeStyle=none;orthogonalLoop=1;jettySize=auto;html=1;fontSize=12;fontColor=#000000;" parent="1" edge="1">
                    <mxGeometry width="100" relative="1" as="geometry">
                        <mxPoint x="700" y="-960" as="sourcePoint"/>
                        <mxPoint x="780" y="-1000" as="targetPoint"/>
                        <Array as="points">
                            <mxPoint x="720" y="-960"/>
                            <mxPoint x="720" y="-1000"/>
                        </Array>
                    </mxGeometry>
                </mxCell>
                <mxCell id="106" value=".nav_log" style="rounded=1;whiteSpace=wrap;html=1;labelBackgroundColor=none;fontSize=12;fillColor=#d0cee2;strokeColor=#56517e;" parent="1" vertex="1">
                    <mxGeometry x="780" y="-1020" width="120" height="40" as="geometry"/>
                </mxCell>
                <mxCell id="107" value="" style="edgeStyle=none;orthogonalLoop=1;jettySize=auto;html=1;fontSize=12;fontColor=#000000;" parent="1" edge="1">
                    <mxGeometry width="100" relative="1" as="geometry">
                        <mxPoint x="700" y="-960" as="sourcePoint"/>
                        <mxPoint x="780" y="-920" as="targetPoint"/>
                        <Array as="points">
                            <mxPoint x="720" y="-960"/>
                            <mxPoint x="720" y="-920"/>
                        </Array>
                    </mxGeometry>
                </mxCell>
                <mxCell id="108" value=".nav_text" style="rounded=1;whiteSpace=wrap;html=1;labelBackgroundColor=none;fontSize=12;fillColor=#d0cee2;strokeColor=#56517e;" parent="1" vertex="1">
                    <mxGeometry x="780" y="-940" width="120" height="40" as="geometry"/>
                </mxCell>
                <mxCell id="109" value="" style="edgeStyle=none;orthogonalLoop=1;jettySize=auto;html=1;fontSize=12;fontColor=#000000;exitX=1;exitY=0.5;exitDx=0;exitDy=0;" parent="1" source="95" edge="1">
                    <mxGeometry width="100" relative="1" as="geometry">
                        <mxPoint x="240" y="-900" as="sourcePoint"/>
                        <mxPoint x="400" y="-840" as="targetPoint"/>
                        <Array as="points">
                            <mxPoint x="350" y="-920"/>
                            <mxPoint x="400" y="-920"/>
                        </Array>
                    </mxGeometry>
                </mxCell>
                <mxCell id="110" value="" style="edgeStyle=none;orthogonalLoop=1;jettySize=auto;html=1;fontSize=12;fontColor=#000000;" parent="1" edge="1">
                    <mxGeometry width="100" relative="1" as="geometry">
                        <mxPoint x="400" y="-840" as="sourcePoint"/>
                        <mxPoint x="500" y="-840" as="targetPoint"/>
                        <Array as="points">
                            <mxPoint x="470" y="-840"/>
                        </Array>
                    </mxGeometry>
                </mxCell>
                <mxCell id="111" value=".stoties" style="rounded=1;whiteSpace=wrap;html=1;labelBackgroundColor=none;fontSize=12;fontColor=#000000;fillColor=#FFFF99;" parent="1" vertex="1">
                    <mxGeometry x="502" y="-860" width="120" height="40" as="geometry"/>
                </mxCell>
                <mxCell id="114" value="" style="edgeStyle=none;orthogonalLoop=1;jettySize=auto;html=1;fontSize=12;fontColor=#000000;" parent="1" edge="1">
                    <mxGeometry width="100" relative="1" as="geometry">
                        <mxPoint x="400" y="-850" as="sourcePoint"/>
                        <mxPoint x="400" y="-780" as="targetPoint"/>
                        <Array as="points">
                            <mxPoint x="400" y="-770"/>
                            <mxPoint x="400" y="-790"/>
                        </Array>
                    </mxGeometry>
                </mxCell>
                <mxCell id="118" value="" style="edgeStyle=none;html=1;fontSize=12;fontColor=#000000;startArrow=none;" parent="1" source="136" target="116" edge="1">
                    <mxGeometry relative="1" as="geometry">
                        <Array as="points">
                            <mxPoint x="720" y="-760"/>
                            <mxPoint x="720" y="-840"/>
                        </Array>
                    </mxGeometry>
                </mxCell>
                <mxCell id="115" value=".profile_detail" style="rounded=1;whiteSpace=wrap;html=1;labelBackgroundColor=none;fontSize=12;fontColor=#000000;fillColor=#FFFF99;" parent="1" vertex="1">
                    <mxGeometry x="504" y="-780" width="120" height="40" as="geometry"/>
                </mxCell>
                <mxCell id="116" value=".profilr_img" style="ellipse;whiteSpace=wrap;html=1;fillColor=#FFFF99;fontColor=#000000;rounded=1;labelBackgroundColor=none;" parent="1" vertex="1">
                    <mxGeometry x="760" y="-875" width="70" height="70" as="geometry"/>
                </mxCell>
                <mxCell id="119" value="" style="edgeStyle=none;orthogonalLoop=1;jettySize=auto;html=1;fontSize=12;fontColor=#000000;" parent="1" edge="1">
                    <mxGeometry width="100" relative="1" as="geometry">
                        <mxPoint x="710" y="-760" as="sourcePoint"/>
                        <mxPoint x="760" y="-760" as="targetPoint"/>
                        <Array as="points">
                            <mxPoint x="740" y="-760"/>
                            <mxPoint x="750" y="-760"/>
                        </Array>
                    </mxGeometry>
                </mxCell>
                <mxCell id="120" value=".user_detail" style="whiteSpace=wrap;html=1;labelBackgroundColor=none;fontSize=12;fontColor=#000000;fillColor=#FFFF99;" parent="1" vertex="1">
                    <mxGeometry x="760" y="-780" width="120" height="40" as="geometry"/>
                </mxCell>
                <mxCell id="121" value="" style="edgeStyle=none;orthogonalLoop=1;jettySize=auto;html=1;fontSize=12;fontColor=#000000;exitX=1;exitY=0.5;exitDx=0;exitDy=0;" parent="1" source="120" edge="1">
                    <mxGeometry width="100" relative="1" as="geometry">
                        <mxPoint x="890" y="-660" as="sourcePoint"/>
                        <mxPoint x="1040" y="-800" as="targetPoint"/>
                        <Array as="points">
                            <mxPoint x="960" y="-760"/>
                            <mxPoint x="960" y="-800"/>
                        </Array>
                    </mxGeometry>
                </mxCell>
                <mxCell id="122" value="user_name" style="rounded=1;whiteSpace=wrap;html=1;labelBackgroundColor=none;fontSize=12;fillColor=#d0cee2;strokeColor=#56517e;" parent="1" vertex="1">
                    <mxGeometry x="1040" y="-820" width="120" height="40" as="geometry"/>
                </mxCell>
                <mxCell id="123" value="" style="edgeStyle=none;orthogonalLoop=1;jettySize=auto;html=1;fontSize=12;fontColor=#000000;" parent="1" edge="1">
                    <mxGeometry width="100" relative="1" as="geometry">
                        <mxPoint x="910" y="-760" as="sourcePoint"/>
                        <mxPoint x="1040" y="-720" as="targetPoint"/>
                        <Array as="points">
                            <mxPoint x="960" y="-760"/>
                            <mxPoint x="960" y="-720"/>
                        </Array>
                    </mxGeometry>
                </mxCell>
                <mxCell id="124" value="user_id" style="rounded=1;whiteSpace=wrap;html=1;labelBackgroundColor=none;fontSize=12;fillColor=#d0cee2;strokeColor=#56517e;" parent="1" vertex="1">
                    <mxGeometry x="1040" y="-740" width="120" height="40" as="geometry"/>
                </mxCell>
                <mxCell id="125" value="" style="edgeStyle=none;orthogonalLoop=1;jettySize=auto;html=1;fontSize=12;fontColor=#000000;" parent="1" edge="1">
                    <mxGeometry width="100" relative="1" as="geometry">
                        <mxPoint x="630" y="-760" as="sourcePoint"/>
                        <mxPoint x="760" y="-680" as="targetPoint"/>
                        <Array as="points">
                            <mxPoint x="720" y="-760"/>
                            <mxPoint x="720" y="-680"/>
                        </Array>
                    </mxGeometry>
                </mxCell>
                <mxCell id="126" value=".time" style="rounded=1;whiteSpace=wrap;html=1;labelBackgroundColor=none;fontSize=12;fillColor=#d0cee2;strokeColor=#56517e;" parent="1" vertex="1">
                    <mxGeometry x="760" y="-700" width="120" height="40" as="geometry"/>
                </mxCell>
                <mxCell id="127" value=".name_tag" style="whiteSpace=wrap;html=1;labelBackgroundColor=none;fontSize=12;fontColor=#000000;fillColor=#FFFF99;" parent="1" vertex="1">
                    <mxGeometry x="360" y="-780" width="90" height="40" as="geometry"/>
                </mxCell>
                <mxCell id="128" value="" style="edgeStyle=none;orthogonalLoop=1;jettySize=auto;html=1;fontSize=12;fontColor=#000000;exitX=1;exitY=0.5;exitDx=0;exitDy=0;" parent="1" source="127" edge="1">
                    <mxGeometry width="100" relative="1" as="geometry">
                        <mxPoint x="440" y="-730" as="sourcePoint"/>
                        <mxPoint x="500" y="-760" as="targetPoint"/>
                        <Array as="points">
                            <mxPoint x="480" y="-760"/>
                            <mxPoint x="510" y="-760"/>
                        </Array>
                    </mxGeometry>
                </mxCell>
                <mxCell id="129" value=".option_line" style="rounded=1;whiteSpace=wrap;html=1;labelBackgroundColor=none;fontSize=12;fillColor=#d0cee2;strokeColor=#56517e;" parent="1" vertex="1">
                    <mxGeometry x="510" y="-700" width="110" height="40" as="geometry"/>
                </mxCell>
                <mxCell id="130" value="" style="edgeStyle=none;orthogonalLoop=1;jettySize=auto;html=1;fontSize=12;fontColor=#000000;entryX=0;entryY=0.5;entryDx=0;entryDy=0;" parent="1" target="129" edge="1">
                    <mxGeometry width="100" relative="1" as="geometry">
                        <mxPoint x="450" y="-760" as="sourcePoint"/>
                        <mxPoint x="550" y="-620" as="targetPoint"/>
                        <Array as="points">
                            <mxPoint x="480" y="-760"/>
                            <mxPoint x="480" y="-680"/>
                        </Array>
                    </mxGeometry>
                </mxCell>
                <mxCell id="132" value="" style="edgeStyle=none;orthogonalLoop=1;jettySize=auto;html=1;fontSize=12;fontColor=#000000;" parent="1" edge="1">
                    <mxGeometry width="100" relative="1" as="geometry">
                        <mxPoint x="400" y="-740" as="sourcePoint"/>
                        <mxPoint x="470" y="-600" as="targetPoint"/>
                        <Array as="points">
                            <mxPoint x="400" y="-600"/>
                        </Array>
                    </mxGeometry>
                </mxCell>
                <mxCell id="133" value=".img" style="rounded=1;whiteSpace=wrap;html=1;labelBackgroundColor=none;fontSize=12;fillColor=#d0cee2;strokeColor=#56517e;" parent="1" vertex="1">
                    <mxGeometry x="470" y="-620" width="120" height="40" as="geometry"/>
                </mxCell>
                <mxCell id="134" value="flex" style="shape=ext;double=1;whiteSpace=wrap;html=1;aspect=fixed;labelBackgroundColor=none;fontSize=12;fillColor=none;" parent="1" vertex="1">
                    <mxGeometry x="470" y="-815" width="190" height="190" as="geometry"/>
                </mxCell>
                <mxCell id="135" value="" style="shape=ext;double=1;whiteSpace=wrap;html=1;aspect=fixed;labelBackgroundColor=none;fontSize=12;fillColor=none;" parent="1" vertex="1">
                    <mxGeometry x="745" y="-1080" width="190" height="190" as="geometry"/>
                </mxCell>
                <mxCell id="137" value="" style="edgeStyle=none;html=1;fontSize=12;fontColor=#000000;endArrow=none;" parent="1" source="115" target="136" edge="1">
                    <mxGeometry relative="1" as="geometry">
                        <mxPoint x="624" y="-760" as="sourcePoint"/>
                        <mxPoint x="760" y="-840" as="targetPoint"/>
                        <Array as="points"/>
                    </mxGeometry>
                </mxCell>
                <mxCell id="136" value="" style="shape=ext;double=1;whiteSpace=wrap;html=1;aspect=fixed;labelBackgroundColor=none;fontSize=12;fillColor=none;" parent="1" vertex="1">
                    <mxGeometry x="710" y="-880" width="240" height="240" as="geometry"/>
                </mxCell>
                <mxCell id="138" value="" style="shape=ext;double=1;rounded=0;whiteSpace=wrap;html=1;labelBackgroundColor=none;fontSize=12;fillColor=none;" parent="1" vertex="1">
                    <mxGeometry x="142.5" y="-1090" width="180" height="350" as="geometry"/>
                </mxCell>
                <mxCell id="139" value="" style="edgeStyle=none;orthogonalLoop=1;jettySize=auto;html=1;fontSize=12;fontColor=#000000;" parent="1" edge="1">
                    <mxGeometry width="100" relative="1" as="geometry">
                        <mxPoint x="400" y="-610" as="sourcePoint"/>
                        <mxPoint x="470" y="-480" as="targetPoint"/>
                        <Array as="points">
                            <mxPoint x="400" y="-480"/>
                        </Array>
                    </mxGeometry>
                </mxCell>
                <mxCell id="140" value=".likes" style="whiteSpace=wrap;html=1;labelBackgroundColor=none;fontSize=12;fontColor=#000000;fillColor=#FFFF99;" parent="1" vertex="1">
                    <mxGeometry x="470" y="-500" width="120" height="40" as="geometry"/>
                </mxCell>
                <mxCell id="141" value="" style="edgeStyle=none;orthogonalLoop=1;jettySize=auto;html=1;fontSize=12;fontColor=#000000;exitX=1;exitY=0.5;exitDx=0;exitDy=0;" parent="1" source="140" edge="1">
                    <mxGeometry width="100" relative="1" as="geometry">
                        <mxPoint x="580" y="-520" as="sourcePoint"/>
                        <mxPoint x="720" y="-520" as="targetPoint"/>
                        <Array as="points">
                            <mxPoint x="660" y="-480"/>
                            <mxPoint x="660" y="-520"/>
                        </Array>
                    </mxGeometry>
                </mxCell>
                <mxCell id="142" value=".like_list" style="whiteSpace=wrap;html=1;labelBackgroundColor=none;fontSize=12;fontColor=#000000;fillColor=#FFFF99;" parent="1" vertex="1">
                    <mxGeometry x="720" y="-540" width="120" height="40" as="geometry"/>
                </mxCell>
                <mxCell id="143" value="" style="edgeStyle=none;orthogonalLoop=1;jettySize=auto;html=1;fontSize=12;fontColor=#000000;" parent="1" edge="1">
                    <mxGeometry width="100" relative="1" as="geometry">
                        <mxPoint x="840" y="-520" as="sourcePoint"/>
                        <mxPoint x="960" y="-560" as="targetPoint"/>
                        <Array as="points">
                            <mxPoint x="900" y="-520"/>
                            <mxPoint x="900" y="-540"/>
                            <mxPoint x="900" y="-560"/>
                        </Array>
                    </mxGeometry>
                </mxCell>
                <mxCell id="144" value=".like-logo" style="rounded=1;whiteSpace=wrap;html=1;labelBackgroundColor=none;fontSize=12;fillColor=#d0cee2;strokeColor=#56517e;" parent="1" vertex="1">
                    <mxGeometry x="960" y="-580" width="120" height="40" as="geometry"/>
                </mxCell>
                <mxCell id="145" value="" style="edgeStyle=none;orthogonalLoop=1;jettySize=auto;html=1;fontSize=12;fontColor=#000000;" parent="1" edge="1">
                    <mxGeometry width="100" relative="1" as="geometry">
                        <mxPoint x="860" y="-520" as="sourcePoint"/>
                        <mxPoint x="960" y="-520" as="targetPoint"/>
                        <Array as="points"/>
                    </mxGeometry>
                </mxCell>
                <mxCell id="146" value=".comment_logo" style="rounded=1;whiteSpace=wrap;html=1;labelBackgroundColor=none;fontSize=12;fillColor=#d0cee2;strokeColor=#56517e;" parent="1" vertex="1">
                    <mxGeometry x="960" y="-535" width="120" height="30" as="geometry"/>
                </mxCell>
                <mxCell id="147" value="" style="edgeStyle=none;orthogonalLoop=1;jettySize=auto;html=1;fontSize=12;fontColor=#000000;exitX=1;exitY=0.5;exitDx=0;exitDy=0;" parent="1" source="142" edge="1">
                    <mxGeometry width="100" relative="1" as="geometry">
                        <mxPoint x="830" y="-500" as="sourcePoint"/>
                        <mxPoint x="960" y="-480" as="targetPoint"/>
                        <Array as="points">
                            <mxPoint x="900" y="-520"/>
                            <mxPoint x="900" y="-480"/>
                        </Array>
                    </mxGeometry>
                </mxCell>
                <mxCell id="148" value=".send_logo" style="rounded=1;whiteSpace=wrap;html=1;labelBackgroundColor=none;fontSize=12;fillColor=#d0cee2;strokeColor=#56517e;" parent="1" vertex="1">
                    <mxGeometry x="960" y="-495" width="120" height="30" as="geometry"/>
                </mxCell>
                <mxCell id="149" value="" style="shape=ext;double=1;rounded=0;whiteSpace=wrap;html=1;labelBackgroundColor=none;fontSize=12;fillColor=none;" parent="1" vertex="1">
                    <mxGeometry x="930" y="-635" width="180" height="230" as="geometry"/>
                </mxCell>
                <mxCell id="150" value="" style="edgeStyle=none;orthogonalLoop=1;jettySize=auto;html=1;fontSize=12;fontColor=#000000;" parent="1" edge="1">
                    <mxGeometry width="100" relative="1" as="geometry">
                        <mxPoint x="590" y="-480" as="sourcePoint"/>
                        <mxPoint x="720" y="-440" as="targetPoint"/>
                        <Array as="points">
                            <mxPoint x="660" y="-480"/>
                            <mxPoint x="660" y="-440"/>
                        </Array>
                    </mxGeometry>
                </mxCell>
                <mxCell id="151" value=".bookmark-logo" style="rounded=1;whiteSpace=wrap;html=1;labelBackgroundColor=none;fontSize=12;fillColor=#d0cee2;strokeColor=#56517e;" parent="1" vertex="1">
                    <mxGeometry x="720" y="-460" width="120" height="40" as="geometry"/>
                </mxCell>
                <mxCell id="152" value="" style="edgeStyle=none;orthogonalLoop=1;jettySize=auto;html=1;fontSize=12;fontColor=#000000;" parent="1" edge="1">
                    <mxGeometry width="100" relative="1" as="geometry">
                        <mxPoint x="400" y="-490" as="sourcePoint"/>
                        <mxPoint x="480" y="-360" as="targetPoint"/>
                        <Array as="points">
                            <mxPoint x="400" y="-360"/>
                        </Array>
                    </mxGeometry>
                </mxCell>
                <mxCell id="153" value=".like_number" style="whiteSpace=wrap;html=1;labelBackgroundColor=none;fontSize=12;fillColor=#d0cee2;strokeColor=#56517e;" parent="1" vertex="1">
                    <mxGeometry x="480" y="-370" width="120" height="20" as="geometry"/>
                </mxCell>
                <mxCell id="154" value="" style="shape=ext;double=1;whiteSpace=wrap;html=1;aspect=fixed;labelBackgroundColor=none;fontSize=12;fillColor=none;" parent="1" vertex="1">
                    <mxGeometry x="624" y="-620" width="250" height="250" as="geometry"/>
                </mxCell>
                <mxCell id="155" value="" style="edgeStyle=none;orthogonalLoop=1;jettySize=auto;html=1;fontSize=12;fontColor=#000000;" parent="1" edge="1">
                    <mxGeometry width="100" relative="1" as="geometry">
                        <mxPoint x="400" y="-370" as="sourcePoint"/>
                        <mxPoint x="480" y="-280" as="targetPoint"/>
                        <Array as="points">
                            <mxPoint x="400" y="-280"/>
                        </Array>
                    </mxGeometry>
                </mxCell>
                <mxCell id="158" value="" style="edgeStyle=none;html=1;fontSize=12;fontColor=#000000;" parent="1" source="156" edge="1">
                    <mxGeometry relative="1" as="geometry">
                        <mxPoint x="687" y="-320" as="targetPoint"/>
                        <Array as="points">
                            <mxPoint x="650" y="-280"/>
                            <mxPoint x="650" y="-320"/>
                        </Array>
                    </mxGeometry>
                </mxCell>
                <mxCell id="156" value=".name_cap" style="whiteSpace=wrap;html=1;labelBackgroundColor=none;fontSize=12;fontColor=#000000;fillColor=#FFFF99;" parent="1" vertex="1">
                    <mxGeometry x="482" y="-300" width="120" height="40" as="geometry"/>
                </mxCell>
                <mxCell id="159" value=".name" style="rounded=1;whiteSpace=wrap;html=1;labelBackgroundColor=none;fontSize=12;fillColor=#d0cee2;strokeColor=#56517e;" parent="1" vertex="1">
                    <mxGeometry x="687" y="-340" width="120" height="40" as="geometry"/>
                </mxCell>
                <mxCell id="160" value="" style="edgeStyle=none;orthogonalLoop=1;jettySize=auto;html=1;fontSize=12;fontColor=#000000;exitX=1;exitY=0.5;exitDx=0;exitDy=0;" parent="1" source="156" edge="1">
                    <mxGeometry width="100" relative="1" as="geometry">
                        <mxPoint x="580" y="-260" as="sourcePoint"/>
                        <mxPoint x="690" y="-240" as="targetPoint"/>
                        <Array as="points">
                            <mxPoint x="650" y="-280"/>
                            <mxPoint x="650" y="-240"/>
                        </Array>
                    </mxGeometry>
                </mxCell>
                <mxCell id="161" value=".caption" style="rounded=1;whiteSpace=wrap;html=1;labelBackgroundColor=none;fontSize=12;fillColor=#d0cee2;strokeColor=#56517e;" parent="1" vertex="1">
                    <mxGeometry x="690" y="-260" width="120" height="40" as="geometry"/>
                </mxCell>
                <mxCell id="162" value="" style="edgeStyle=none;orthogonalLoop=1;jettySize=auto;html=1;fontSize=12;fontColor=#000000;" parent="1" edge="1">
                    <mxGeometry width="100" relative="1" as="geometry">
                        <mxPoint x="400" y="-290" as="sourcePoint"/>
                        <mxPoint x="480" y="-180" as="targetPoint"/>
                        <Array as="points">
                            <mxPoint x="400" y="-180"/>
                        </Array>
                    </mxGeometry>
                </mxCell>
                <mxCell id="163" value=".comment_section" style="rounded=1;whiteSpace=wrap;html=1;labelBackgroundColor=none;fontSize=12;fillColor=#d0cee2;strokeColor=#56517e;" parent="1" vertex="1">
                    <mxGeometry x="480" y="-200" width="120" height="40" as="geometry"/>
                </mxCell>
                <mxCell id="164" value="" style="shape=ext;double=1;rounded=0;whiteSpace=wrap;html=1;labelBackgroundColor=none;fontSize=12;fillColor=none;" parent="1" vertex="1">
                    <mxGeometry x="670" y="-360" width="170" height="160" as="geometry"/>
                </mxCell>
                <mxCell id="165" value="" style="edgeStyle=none;orthogonalLoop=1;jettySize=auto;html=1;fontSize=12;fontColor=#000000;exitX=0.5;exitY=1;exitDx=0;exitDy=0;" parent="1" source="96" edge="1">
                    <mxGeometry width="100" relative="1" as="geometry">
                        <mxPoint x="190" y="-750" as="sourcePoint"/>
                        <mxPoint x="800" y="-80" as="targetPoint"/>
                        <Array as="points">
                            <mxPoint x="220" y="-80"/>
                        </Array>
                    </mxGeometry>
                </mxCell>
                <mxCell id="166" value="" style="edgeStyle=none;orthogonalLoop=1;jettySize=auto;html=1;fontSize=12;fontColor=#000000;" parent="1" edge="1">
                    <mxGeometry width="100" relative="1" as="geometry">
                        <mxPoint x="800" y="-80" as="sourcePoint"/>
                        <mxPoint x="920" y="-160" as="targetPoint"/>
                        <Array as="points">
                            <mxPoint x="800" y="-160"/>
                            <mxPoint x="870" y="-160"/>
                        </Array>
                    </mxGeometry>
                </mxCell>
                <mxCell id="167" value="" style="edgeStyle=none;orthogonalLoop=1;jettySize=auto;html=1;fontSize=12;fontColor=#000000;" parent="1" edge="1">
                    <mxGeometry width="100" relative="1" as="geometry">
                        <mxPoint x="800" y="-80" as="sourcePoint"/>
                        <mxPoint x="920" y="-80" as="targetPoint"/>
                        <Array as="points"/>
                    </mxGeometry>
                </mxCell>
                <mxCell id="169" value="" style="edgeStyle=none;orthogonalLoop=1;jettySize=auto;html=1;fontSize=12;fontColor=#000000;" parent="1" edge="1">
                    <mxGeometry width="100" relative="1" as="geometry">
                        <mxPoint x="800" y="-80" as="sourcePoint"/>
                        <mxPoint x="920" as="targetPoint"/>
                        <Array as="points">
                            <mxPoint x="800"/>
                            <mxPoint x="920"/>
                        </Array>
                    </mxGeometry>
                </mxCell>
                <mxCell id="170" value=".profile_photo" style="rounded=1;whiteSpace=wrap;html=1;labelBackgroundColor=none;fontSize=12;fillColor=#d0cee2;strokeColor=#56517e;" parent="1" vertex="1">
                    <mxGeometry x="920" y="-180" width="120" height="40" as="geometry"/>
                </mxCell>
                <mxCell id="171" value=".user_detail" style="whiteSpace=wrap;html=1;labelBackgroundColor=none;fontSize=12;fontColor=#000000;fillColor=#FFFF99;" parent="1" vertex="1">
                    <mxGeometry x="920" y="-100" width="120" height="40" as="geometry"/>
                </mxCell>
                <mxCell id="172" value=".switch" style="rounded=1;whiteSpace=wrap;html=1;labelBackgroundColor=none;fontSize=12;fillColor=#d0cee2;strokeColor=#56517e;" parent="1" vertex="1">
                    <mxGeometry x="920" y="-20" width="120" height="40" as="geometry"/>
                </mxCell>
                <mxCell id="173" value="" style="shape=ext;double=1;rounded=0;whiteSpace=wrap;html=1;labelBackgroundColor=none;fontSize=12;fillColor=none;" parent="1" vertex="1">
                    <mxGeometry x="850" y="-250" width="228" height="310" as="geometry"/>
                </mxCell>
                <mxCell id="174" value="" style="edgeStyle=none;orthogonalLoop=1;jettySize=auto;html=1;fontSize=12;fontColor=#000000;exitX=1;exitY=0.5;exitDx=0;exitDy=0;" parent="1" source="171" edge="1">
                    <mxGeometry width="100" relative="1" as="geometry">
                        <mxPoint x="1080" as="sourcePoint"/>
                        <mxPoint x="1280" as="targetPoint"/>
                        <Array as="points">
                            <mxPoint x="1200" y="-80"/>
                            <mxPoint x="1200"/>
                        </Array>
                    </mxGeometry>
                </mxCell>
                <mxCell id="175" value="" style="edgeStyle=none;orthogonalLoop=1;jettySize=auto;html=1;fontSize=12;fontColor=#000000;" parent="1" edge="1">
                    <mxGeometry width="100" relative="1" as="geometry">
                        <mxPoint x="1160" y="-80" as="sourcePoint"/>
                        <mxPoint x="1280" y="-160" as="targetPoint"/>
                        <Array as="points">
                            <mxPoint x="1200" y="-80"/>
                            <mxPoint x="1200" y="-160"/>
                        </Array>
                    </mxGeometry>
                </mxCell>
                <mxCell id="176" value=".user_name" style="rounded=1;whiteSpace=wrap;html=1;labelBackgroundColor=none;fontSize=12;fillColor=#d0cee2;strokeColor=#56517e;" parent="1" vertex="1">
                    <mxGeometry x="1280" y="-190" width="120" height="60" as="geometry"/>
                </mxCell>
                <mxCell id="177" value=".name" style="rounded=1;whiteSpace=wrap;html=1;labelBackgroundColor=none;fontSize=12;fillColor=#d0cee2;strokeColor=#56517e;" parent="1" vertex="1">
                    <mxGeometry x="1280" y="-30" width="120" height="60" as="geometry"/>
                </mxCell>
            </root>
        </mxGraphModel>
    </diagram>
</mxfile>